HIERARCHY
ROOT Hips
{
  OFFSET 39.2762 95.4094 -95.5444
  CHANNELS 6 Xposition Yposition Zposition Zrotation Xrotation Yrotation
  JOINT ToSpine
  {
    OFFSET -2.69724 7.43032 -0.144315
    CHANNELS 3 Zrotation Xrotation Yrotation
    JOINT Spine
    {
      OFFSET -0.0310711 10.7595 1.96963
      CHANNELS 3 Zrotation Xrotation Yrotation
      JOINT Spine1
      {
        OFFSET 13.1342 3.43533 0.764692
        CHANNELS 3 Zrotation Xrotation Yrotation
        JOINT Neck
        {
          OFFSET 29.8703 7.82586 -0.130764
          CHANNELS 3 Zrotation Xrotation Yrotation
          JOINT Head
          {
            OFFSET 9.52751 0.295786 -0.907742
            CHANNELS 3 Zrotation Xrotation Yrotation
            End Site
            {
              OFFSET 16.4037 0.713936 2.7358
            }
          }
        }
        JOINT LeftShoulder
        {
          OFFSET 27.5574 4.95586 2.47156
          CHANNELS 3 Zrotation Xrotation Yrotation
          JOINT LeftArm
          {
            OFFSET 1.20734 -0.998971 20.1238
            CHANNELS 3 Zrotation Xrotation Yrotation
            JOINT LeftForeArm
            {
              OFFSET 26.8049 -0.0536703 -0.155908
              CHANNELS 3 Zrotation Xrotation Yrotation
              JOINT LeftHand
              {
                OFFSET 26.6817 0 0.320147
                CHANNELS 3 Zrotation Xrotation Yrotation
                End Site
                {
                  OFFSET 18.6119 0 0.382219
                }
              }
            }
          }
        }
        JOINT RightShoulder
        {
          OFFSET 27.5927 4.71444 -2.65209
          CHANNELS 3 Zrotation Xrotation Yrotation
          JOINT RightArm
          {
            OFFSET 2.83739 -1.17114 -18.7564
            CHANNELS 3 Zrotation Xrotation Yrotation
            JOINT RightForeArm
            {
              OFFSET 28.839 -0.0548439 1.22491
              CHANNELS 3 Zrotation Xrotation Yrotation
              JOINT RightHand
              {
                OFFSET 26.5114 0 -0.101894
                CHANNELS 3 Zrotation Xrotation Yrotation
                End Site
                {
                  OFFSET 18.2168 0 0
                }
              }
            }
          }
        }
      }
    }
  }
  JOINT LeftUpLeg
  {
    OFFSET -4.76168 -1.9167 -10.2353
    CHANNELS 3 Zrotation Xrotation Yrotation
    JOINT LeftLeg
    {
      OFFSET 2.55951 -42.0585 -8.02213
      CHANNELS 3 Zrotation Xrotation Yrotation
      JOINT LeftFoot
      {
        OFFSET 3.16357 -42.5282 -3.95426
        CHANNELS 3 Zrotation Xrotation Yrotation
        JOINT LeftToeBase
        {
          OFFSET 0.346054 -6.02161 12.8035
          CHANNELS 3 Zrotation Xrotation Yrotation
          End Site
          {
            OFFSET 0.134235 -1.35082 5.13018
          }
        }
      }
    }
  }
  JOINT RightUpLeg
  {
    OFFSET -4.94151 -1.41743 10.6446
    CHANNELS 3 Zrotation Xrotation Yrotation
    JOINT RightLeg
    {
      OFFSET -2.56294 -42.0364 -7.94377
      CHANNELS 3 Zrotation Xrotation Yrotation
      JOINT RightFoot
      {
        OFFSET -3.0952 -42.555 -4.02241
        CHANNELS 3 Zrotation Xrotation Yrotation
        JOINT RightToeBase
        {
          OFFSET -0.0828122 -6.13587 12.8035
          CHANNELS 3 Zrotation Xrotation Yrotation
          End Site
          {
            OFFSET -0.131328 -1.35082 5.13018
          }
        }
      }
    }
  }
}
MOTION
Frames:	18
Frame Time:	0.0333333
39.7845 107.486 -3.44402 -0.757785 -72.6463 -86.025 -70.1915 0 88.8779 115.621 63.9968 -27.8159 -3.24584 13.8315 8.02169 -130.728 18.0781 -179.503 -149.964 55.1381 -177.564 1.0561 -9.31272 -9.81315 -115.774 5.29455 -82.9191 7.38213 2.7806 -69.0698 0.420957 0.00057536 0.35866 -1.22261 7.14462 31.4562 -95.8334 -3.34189 61.6784 14.7992 -5.31808 70.589 0.58676 0.000331134 0.0646654 -54.8499 1.21535 91.3189 -3.84411 48.7165 -8.8593 -4.40941 8.17121 1.42243 -1.12266 0.10916 5.29287 8.38994 -1.29105 77.7883 25.7589 84.5956 -35.9968 -11.3113 12.8072 1.87057 1.33365 -12.3636 3.07737 
39.648 110.904 2.86297 2.63615 -73.5226 -85.3065 -70.1915 0 88.8779 114.638 64.612 -28.0853 -1.25295 14.9531 6.21136 -127.004 18.3607 -179.728 -149.745 55.5015 -175.482 1.0464 -9.30885 -8.54934 -115.455 3.4896 -82.9863 7.45006 2.74339 -69.4961 0.420957 0.00057536 0.35866 -1.22155 7.5357 30.4164 -99.3079 -0.0974273 58.7561 15.5775 -5.82243 69.9224 0.58676 0.000331134 0.0646654 -47.4619 -1.06492 93.0354 -8.49168 68.1402 -0.209015 -2.92579 4.86443 0.787873 -0.236586 -2.27527 7.17868 1.95014 -1.97066 79.4673 8.14941 74.0419 -13.0461 -9.30128 15.5404 1.39955 1.1945 -10.3416 0.760901 
39.1814 113.952 10.1472 -3.88725 -75.2681 -94.6618 -70.1915 0 88.8779 115.126 65.9538 -29.6243 -0.77528 17.3799 3.5663 -122.163 18.3154 177.779 -147.361 55.7014 -176.664 1.02529 -8.81875 -6.73752 -114.428 3.17673 -81.7132 7.85667 2.7265 -70.5434 0.420957 0.00057536 0.35866 -1.00656 7.26739 28.0533 -100.514 1.02578 57.018 14.6055 -5.68831 69.1062 0.58676 0.000331134 0.0646654 -41.7242 -0.547076 97.2591 -47.0586 84.0599 36.2616 -1.11065 1.16806 0.155348 1.43248 -5.93746 9.36872 -8.93665 0.123928 81.9798 3.66549 59.8041 -4.38783 -6.98179 16.9172 0.77027 0.991318 -9.33384 1.62568 
38.3429 115.473 17.5207 -8.06697 -76.48 -101.128 -70.1915 0 88.8779 113.377 66.9195 -30.4023 -0.974312 18.4146 2.98531 -118.219 17.81 176.805 -146.142 55.3289 -176.628 0.977236 -7.30494 -5.71098 -112.239 1.87545 -79.9934 7.18018 2.26967 -72.0944 0.420957 0.00057536 0.35866 -0.89352 7.08043 26.8379 -100.796 2.50503 56.6392 12.916 -5.05598 68.9288 0.58676 0.000331134 0.0646654 -35.7069 0.601969 99.2159 -152.404 78.1254 139.028 1.01528 -0.603077 -0.26248 3.19421 -8.69843 7.80315 -19.9515 1.41935 84.5892 1.87756 45.2326 -1.42398 -5.82975 16.3357 0.470838 0.440496 -6.84636 3.61296 
37.4724 115.91 24.8653 -8.52138 -78.0712 -103.186 -70.1915 0 88.8779 111.694 67.3534 -30.6768 -0.822059 18.7656 2.35833 -117.067 17.6461 176.277 -146.347 55.2947 -176.967 0.914844 -6.20848 -4.66536 -110.656 0.225659 -77.6023 7.77113 2.31503 -73.0167 0.420957 0.00057536 0.35866 -0.75747 6.84332 25.3129 -101.624 3.48215 55.8176 12.1453 -4.38882 70.3761 0.58676 0.000331134 0.0646654 -31.0597 1.06263 99.0627 -161.657 69.9822 145.983 1.61576 -3.08198 -0.496137 4.45834 -11.4005 10.951 -31.0973 1.62843 86.4211 1.55646 31.1823 3.98105 -5.23526 21.9968 0.133713 0.803206 -6.9211 0.233725 
36.6756 115.039 32.2987 -8.59238 -79.1109 -103.817 -70.1915 0 88.8779 107.357 68.0061 -26.1688 0.480944 18.9496 0.903777 -115.958 17.8667 176.401 -146.113 55.3754 -177.395 0.88202 -5.71674 -4.23892 -109.512 -1.82737 -74.4613 7.1333 2.05882 -73.4909 0.420957 0.00057536 0.35866 -0.684504 6.94474 24.0094 -102.239 4.66595 54.9709 11.8938 -3.82626 72.3593 0.58676 0.000331134 0.0646654 -27.0513 2.02778 97.9174 -163.02 67.6678 147.041 2.50497 -5.39936 -0.718877 5.1108 -12.5523 11.6028 -40.5187 1.52432 85.3047 1.18605 20.0929 10.4802 3.99478 25.4413 -3.1779 0.744701 0.578909 -4.91409 
36.2066 113.037 39.4157 -13.4073 -78.8676 -110.702 -70.1915 0 88.8779 101.791 69.455 -21.3537 0.949221 19.9604 0.0491408 -115.438 18.2044 176.935 -147.255 55.6446 -176.857 0.825038 -4.98272 -3.57667 -109.568 -1.89054 -72.0988 5.55294 1.68844 -72.7343 0.420957 0.00057536 0.35866 -0.594714 6.94965 22.6486 -103.154 5.96794 54.1709 11.6328 -3.30158 74.298 0.58676 0.000331134 0.0646654 -23.6326 2.34722 98.7362 -160.575 71.2799 144.821 1.48267 -7.85568 -0.798625 4.67585 -11.9944 12.7945 -45.936 -0.193472 84.177 1.57771 14.6376 6.74613 0.897431 27.9559 -2.31058 -1.34113 4.035 4.25667 
35.7481 109.981 46.564 -20.2725 -78.6632 -118.907 -70.1915 0 88.8779 97.1865 70.7689 -16.8491 1.89289 20.9463 -0.469955 -115.213 18.5209 177.649 -148.276 55.9432 -175.244 0.786381 -4.13258 -3.52172 -109.392 -2.82442 -70.7888 5.67556 1.75849 -72.4463 0.420957 0.00057536 0.35866 -0.456848 6.98033 20.523 -104.548 5.84678 53.3862 11.2287 -2.76448 76.26 0.58676 0.000331134 0.0646654 -22.2299 3.19563 99.515 -150.061 78.5874 133.667 0.860464 -8.73681 -0.824925 5.66341 -13.8642 16.2552 -50.0983 -0.951249 83.4937 1.38468 13.8194 2.60762 -1.29985 27.9488 -1.50028 -2.12274 6.12009 6.35301 
35.5971 105.769 53.6042 -27.1841 -78.2455 -126.339 -70.1915 0 88.8779 96.9544 71.2509 -15.355 1.90496 21.6311 -1.28622 -116.3 19.0287 178.954 -150.399 56.3759 -172.889 0.690831 -3.04614 -2.73356 -108.972 -3.24287 -69.2326 5.34793 1.58325 -73.161 0.420957 0.00057536 0.35866 -0.499394 7.21359 20.8248 -105.054 7.24084 53.6306 10.5631 -2.09943 78.7848 0.58676 0.000331134 0.0646654 -22.0442 3.63588 99.9705 -81.8902 84.9986 65.9131 0.366433 -9.28766 -0.84139 6.61453 -15.2625 16.2712 -52.289 -1.28161 82.3383 1.38124 18.2419 2.63843 -0.513081 28.0507 -1.79733 -2.41562 4.56352 9.06597 
35.436 100.863 60.5145 -34.737 -78.09 -133.552 -70.1915 0 88.8779 101.16 71.3108 -18.2007 1.04945 21.8643 -0.636113 -120.082 19.6285 -178.865 -153.48 56.6671 -171.551 0.806693 -3.3447 -4.41568 -109.2 -6.19361 -67.0521 4.14864 1.26123 -72.85 0.420957 0.00057536 0.35866 -0.577582 7.22988 21.9405 -105.644 9.70916 54.863 11.169 -1.83507 80.6629 0.58676 0.000331134 0.0646654 -23.5235 4.35111 100.304 -17.2832 75.8631 1.15355 -0.824788 -10.7263 -0.911002 6.62362 -15.3263 17.1751 -53.1626 -0.792442 81.9472 1.27838 29.6544 3.49563 -1.58166 9.97213 -0.274594 -0.537516 -5.38493 9.93105 
35.301 95.9282 67.1667 -42.4565 -77.5117 -140.423 -70.1915 0 88.8779 108.179 71.0736 -23.6159 -1.39499 22.0643 0.853895 -123.884 20.5585 -176.717 -156.958 57.3904 -170.533 0.866545 -3.32949 -5.41836 -109.519 -5.77042 -64.2568 4.28598 1.15066 -74.6754 0.420957 0.00057536 0.35866 -0.92482 7.44797 26.5042 -105.258 13.0106 56.3188 11.6542 -1.54451 82.4102 0.58676 0.000331134 0.0646654 -25.9309 4.87452 100.473 -7.02385 61.6137 -8.89393 -1.18229 -11.2954 -0.950531 7.88302 -17.147 18.0879 -52.02 2.19009 86.8318 2.01962 43.9573 -0.357556 -6.30471 -8.60151 1.16139 0.891958 -7.58273 0.171444 
35.1056 92.4258 73.8695 -40.6714 -74.9575 -137.029 -70.1915 0 88.8779 102.609 71.7689 -14.6745 0.307305 21.9868 0.742513 -129.756 20.9959 -173.806 -160.051 57.6745 -170.576 1.09652 -0.889086 -9.01787 -112.178 -3.41251 -62.4656 4.16402 0.824568 -78.4115 0.420957 0.00057536 0.35866 -0.972583 6.41102 29.7129 -106.31 10.4029 60.8447 12.0835 -2.02553 80.4949 0.58676 0.000331134 0.0646654 -26.2275 5.23405 99.4852 -3.9521 46.722 -12.2918 -0.915722 -12.6834 -1.08238 7.60427 -16.7443 17.6501 -52.4231 5.69494 88.1323 2.53279 49.322 -0.944793 -8.43586 -23.5185 1.34765 2.63311 -1.36942 -16.4941 
34.5402 90.8947 80.8926 -41.4889 -74.591 -137.254 -70.1915 0 88.8779 94.3752 72.0338 -6.16528 3.27523 21.5748 1.00002 -131.796 20.6216 -174.099 -158.395 57.4532 -171.832 1.3771 0.115482 -12.0708 -112.124 0.727831 -59.3669 5.39364 0.788102 -81.1848 0.420957 0.00057536 0.35866 -0.954026 5.21793 33.3691 -105.373 4.06646 64.6992 8.91522 -2.38833 75.0842 0.58676 0.000331134 0.0646654 -30.4869 3.72164 98.0843 -2.61781 31.6313 -11.5462 -2.23837 -10.6771 -0.856824 9.35152 -19.2264 16.0994 -57.0427 7.77225 90.6409 2.04761 50.343 -4.73754 -7.35122 -29.6081 1.52884 2.6844 -0.844159 -16.7552 
33.6478 90.0664 88.0862 -34.0435 -76.1777 -129.353 -70.1915 0 88.8779 86.6285 71.4189 0.638846 4.77585 20.7297 1.01455 -132.009 20.6043 -176.39 -157.701 57.8567 -173.262 1.60879 -0.509064 -15.0368 -110.529 5.64151 -57.1898 8.67618 1.26423 -81.1864 0.420957 0.00057536 0.35866 -1.20633 5.0892 38.7454 -102.029 -0.423069 64.1019 6.04295 -2.49348 67.8085 0.58676 0.000331134 0.0646654 -32.7535 0.40987 95.747 -1.83798 24.2664 -10.3712 -3.1333 -7.35677 -0.466634 9.60885 -19.6395 14.4298 -62.4685 8.27769 91.4247 1.7287 49.9619 -6.03875 0.0881528 -31.2365 2.71472 2.07701 -2.92856 -12.6577 
32.8915 89.6381 95.9772 -18.7321 -76.4199 -113.625 -70.1915 0 88.8779 71.7403 70.7066 14.7366 6.75691 20.5336 1.78239 -133.788 21.3675 -178.757 -159.396 59.3687 -172.62 1.73062 -2.27556 -18.2491 -108.661 10.8191 -58.666 10.3833 2.23327 -77.4313 0.420957 0.00057536 0.35866 -1.19024 4.67298 40.6155 -100.913 -7.17227 60.6327 6.9394 -3.9258 60.8123 0.58676 0.000331134 0.0646654 -32.2347 -2.52382 95.5683 -2.12866 25.251 -15.9836 -5.16924 -6.81678 -0.266443 9.77193 -19.8926 14.0439 -65.97 5.69867 85.8095 2.40392 49.3716 -1.63323 -4.49965 -24.0192 1.6867 2.26813 -17.6474 -14.4752 
32.1711 89.189 103.259 -12.8614 -76.7412 -108.474 -70.1915 0 88.8779 69.9619 71.7036 15.1891 5.04381 21.6945 2.13406 -136.187 22.1842 178.517 -160.095 60.8278 -173.35 1.73572 -3.91433 -20.878 -103.622 14.3585 -61.9745 12.4261 3.60331 -73.5312 0.420957 0.00057536 0.35866 -1.13248 4.62464 39.6993 -102.36 -15.49 56.0961 10.4956 -8.2064 52.4623 0.58676 0.000331134 0.0646654 -31.9242 -5.17352 93.2504 -2.71042 31.2831 -21.917 -8.70726 3.12627 1.51934 9.06816 -18.9298 7.35849 -68.2854 3.0731 83.6352 2.97325 52.8022 -1.16443 -3.98086 -15.2 1.3258 3.0264 -26.531 -4.21669 
31.6856 89.4183 110.138 -16.133 -75.9265 -112.514 -70.1915 0 88.8779 68.6479 72.5565 17.7054 4.82084 23.5672 -0.444725 -139.175 22.6433 176.626 -160.809 61.693 -174.111 1.7623 -4.70603 -23.1964 -99.9209 16.9712 -64.7311 12.3083 4.34056 -70.3468 0.420957 0.00057536 0.35866 -1.2028 4.76008 40.386 -103.362 -22.2159 55.4858 10.0523 -11.434 41.8999 0.58676 0.000331134 0.0646654 -30.5203 -4.96252 94.8094 -3.64016 40.8956 -16.5366 1.26765 1.9524 -0.122418 4.11817 -8.33216 -2.37881 -66.8305 1.43233 85.2896 4.32842 59.3031 -1.19523 -4.26963 -2.88904 0.816505 3.94678 -29.8463 1.18067 
30.9651 90.1857 116.151 -15.446 -77.1552 -112.606 -70.1915 0 88.8779 75.3511 73.0918 8.82308 2.93001 23.3514 0.469369 -140.377 23.2174 177.564 -162.294 62.3154 -171.448 1.66089 -6.13489 -25.5291 -102.561 18.7137 -62.203 19.31 7.1427 -69.8872 0.420957 0.00057536 0.35866 -1.38629 5.52386 39.9396 -101.214 -29.3891 57.7738 6.96804 -11.5703 31.5392 0.58676 0.000331134 0.0646654 -33.8462 -6.46556 94.7428 -4.01985 44.2301 -16.3989 4.5512 -0.205827 -0.68261 1.43379 -2.38036 -2.07077 -64.5882 0.305545 86.352 6.53164 67.3423 -4.45845 -7.67935 4.16039 1.0974 2.5807 -23.8333 -7.90795 
